<svg id="visual" viewBox="0 0 900 80" width="900" height="80" xmlns="http://www.w3.org/2000/svg" xmlns:xlink="http://www.w3.org/1999/xlink" version="1.1">
    <rect x="0" y="0" width="900" height="80" fill="#0D0D0D"></rect>
    <path d="M0 40L30 37.8C60 35.7 120 31.3 180 37C240 42.7 300 58.3 360 58.3C420 58.3 480 42.7 540 38.3C600 34 660 41 720 40.5C780 40 840 32 870 28L900 24L900 0L870 0C840 0 780 0 720 0C660 0 600 0 540 0C480 0 420 0 360 0C300 0 240 0 180 0C120 0 60 0 30 0L0 0Z" fill="#cacaca"></path>
    <path d="M0 21L30 25.2C60 29.3 120 37.7 180 39C240 40.3 300 34.7 360 29.5C420 24.3 480 19.7 540 25.5C600 31.3 660 47.7 720 51.7C780 55.7 840 47.3 870 43.2L900 39L900 0L870 0C840 0 780 0 720 0C660 0 600 0 540 0C480 0 420 0 360 0C300 0 240 0 180 0C120 0 60 0 30 0L0 0Z" fill="#d4d4d4"></path>
    <path d="M0 53L30 52.5C60 52 120 51 180 44C240 37 300 24 360 20.8C420 17.7 480 24.3 540 24.8C600 25.3 660 19.7 720 17.5C780 15.3 840 16.7 870 17.3L900 18L900 0L870 0C840 0 780 0 720 0C660 0 600 0 540 0C480 0 420 0 360 0C300 0 240 0 180 0C120 0 60 0 30 0L0 0Z" fill="#dfdfdf"></path>
    <path d="M0 27L30 26.2C60 25.3 120 23.7 180 24.7C240 25.7 300 29.3 360 31C420 32.7 480 32.3 540 32.3C600 32.3 660 32.7 720 29.7C780 26.7 840 20.3 870 17.2L900 14L900 0L870 0C840 0 780 0 720 0C660 0 600 0 540 0C480 0 420 0 360 0C300 0 240 0 180 0C120 0 60 0 30 0L0 0Z" fill="#e9e9e9"></path>
    <path d="M0 28L30 26C60 24 120 20 180 18C240 16 300 16 360 16.3C420 16.7 480 17.3 540 16.7C600 16 660 14 720 11.7C780 9.3 840 6.7 870 5.3L900 4L900 0L870 0C840 0 780 0 720 0C660 0 600 0 540 0C480 0 420 0 360 0C300 0 240 0 180 0C120 0 60 0 30 0L0 0Z" fill="#f4f4f4"></path>
    <path d="M0 1L30 3C60 5 120 9 180 10.5C240 12 300 11 360 11.5C420 12 480 14 540 13.8C600 13.7 660 11.3 720 11.7C780 12 840 15 870 16.5L900 18L900 0L870 0C840 0 780 0 720 0C660 0 600 0 540 0C480 0 420 0 360 0C300 0 240 0 180 0C120 0 60 0 30 0L0 0Z" fill="#ffffff"></path>
</svg>